<svg xmlns="http://www.w3.org/2000/svg">
 <defs>
<symbol id="like"  fill="none" stroke="currentColor" stroke-linecap="round" stroke-linejoin="round" stroke-width="2" viewBox="0 0 24 24">
    <path d="M14 9V5a3 3 0 0 0-3-3l-4 9v11h11.28a2 2 0 0 0 2-1.7l1.38-9a2 2 0 0 0-2-2.3zM7 22H4a2 2 0 0 1-2-2v-7a2 2 0 0 1 2-2h3"/>
</symbol>
<symbol id="user" fill="none" stroke="currentColor" stroke-linecap="round" stroke-linejoin="round" stroke-width="2" viewBox="0 0 24 24">
    <path d="M20 21v-2a4 4 0 0 0-4-4H8a4 4 0 0 0-4 4v2"/>
    <circle cx="12" cy="7" r="4"/>
</symbol>
<symbol id="close"
    xmlns="http://www.w3.org/2000/svg" width="20" height="20" fill="none" viewBox="-0.5 0 25 25">
    <g id="SVGRepo_iconCarrier" stroke="#000" stroke-linecap="round" stroke-linejoin="round" stroke-width="1.5">
        <path d="m3 21.32 18-18M3 3.32l18 18"/>
    </g>
</symbol>
			


 </defs>
</svg>